<svg width="900" height="520" xmlns="http://www.w3.org/2000/svg" viewBox="0 0 900 520">
  <rect width="900" height="520" fill="white"/>
  <text x="60" y="40" font-size="28" font-family="Arial">Finite-Crystal Spectrum</text>
  <text x="60" y="70" font-size="16" font-family="Arial" fill="#555">Allowed bands contain N−1 bulk-like states; each gap hosts at most one special state.</text>
  <line x1="90" y1="100" x2="90" y2="450" stroke="black" stroke-width="2"/>
  <line x1="90" y1="450" x2="830" y2="450" stroke="black" stroke-width="2"/>
  <text x="55" y="115" font-size="18" font-family="Arial">E</text>
  <text x="760" y="482" font-size="18" font-family="Arial">finite crystal</text>
  <rect x="150" y="360" width="580" height="36" fill="#dbeafe" stroke="#60a5fa"/>
  <rect x="150" y="255" width="580" height="36" fill="#dbeafe" stroke="#60a5fa"/>
  <rect x="150" y="150" width="580" height="36" fill="#dbeafe" stroke="#60a5fa"/>
  <text x="745" y="384" font-size="16" font-family="Arial">band</text>
  <text x="745" y="279" font-size="16" font-family="Arial">band</text>
  <text x="745" y="174" font-size="16" font-family="Arial">band</text>
  <g fill="#2563eb">
    <circle cx="220" cy="378" r="7"/><circle cx="290" cy="378" r="7"/><circle cx="360" cy="378" r="7"/><circle cx="430" cy="378" r="7"/><circle cx="500" cy="378" r="7"/><circle cx="570" cy="378" r="7"/><circle cx="640" cy="378" r="7"/>
    <circle cx="220" cy="273" r="7"/><circle cx="290" cy="273" r="7"/><circle cx="360" cy="273" r="7"/><circle cx="430" cy="273" r="7"/><circle cx="500" cy="273" r="7"/><circle cx="570" cy="273" r="7"/><circle cx="640" cy="273" r="7"/>
    <circle cx="220" cy="168" r="7"/><circle cx="290" cy="168" r="7"/><circle cx="360" cy="168" r="7"/><circle cx="430" cy="168" r="7"/><circle cx="500" cy="168" r="7"/><circle cx="570" cy="168" r="7"/><circle cx="640" cy="168" r="7"/>
  </g>
  <circle cx="445" cy="223" r="9" fill="#dc2626"/>
  <text x="462" y="228" font-size="16" font-family="Arial">special gap state</text>
  <text x="160" y="430" font-size="16" font-family="Arial" fill="#1d4ed8">N−1 bulk-like states in each allowed band</text>
  <text x="160" y="112" font-size="16" font-family="Arial" fill="#b91c1c">At most one state in each gap</text>
</svg>
